<?xml version="1.0" standalone="no"?>
<!DOCTYPE svg PUBLIC "-//W3C//DTD SVG 20010904//EN"
 "http://www.w3.org/TR/2001/REC-SVG-20010904/DTD/svg10.dtd">
<svg version="1.0" xmlns="http://www.w3.org/2000/svg"
 width="314.000000pt" height="298.000000pt" viewBox="0 0 314.000000 298.000000"
 preserveAspectRatio="xMidYMid meet">

<g transform="translate(0.000000,298.000000) scale(0.100000,-0.100000)"
fill="#000000" stroke="none">
<path d="M1725 2771 c-16 -10 -41 -30 -55 -45 -21 -24 -31 -26 -85 -25 -90 3
-126 -25 -111 -86 8 -30 -61 -118 -113 -144 -48 -25 -76 -57 -91 -106 -7 -22
-23 -53 -36 -68 -27 -33 -32 -88 -9 -107 22 -18 19 -28 -15 -45 -38 -20 -61
-55 -71 -108 -12 -66 -44 -148 -62 -162 -9 -7 -28 -10 -40 -8 -31 6 -184 -66
-217 -102 -14 -15 -42 -36 -62 -46 -43 -22 -63 -49 -72 -97 -3 -18 -20 -54
-37 -79 -24 -34 -33 -61 -38 -107 -4 -40 -15 -73 -29 -93 -67 -94 -73 -152
-27 -243 l23 -46 -29 -39 c-33 -43 -38 -89 -14 -134 10 -21 12 -37 5 -60 -6
-22 -4 -39 6 -61 17 -33 13 -44 -38 -114 -15 -21 -28 -47 -28 -56 0 -29 -25
-43 -50 -30 -54 29 -100 -26 -100 -117 0 -68 9 -78 68 -75 45 2 55 -3 117 -48
60 -44 74 -50 117 -50 36 0 59 -7 89 -27 34 -22 49 -26 102 -24 115 5 129 3
211 -38 67 -34 91 -41 139 -41 39 0 77 -8 120 -26 74 -32 163 -35 247 -11 30
9 82 19 115 23 33 3 80 15 105 26 25 11 84 28 131 38 48 10 137 40 198 66 102
42 117 52 164 106 29 33 73 70 99 84 55 28 78 57 78 99 -1 37 -17 67 -52 95
-39 30 -38 79 3 130 18 22 46 44 63 50 18 6 47 32 69 60 28 36 49 53 78 62 48
14 69 40 69 87 0 24 9 44 35 72 32 36 35 44 35 102 0 51 4 68 20 82 25 23 35
76 21 116 -10 28 -8 35 15 62 36 42 29 88 -24 158 -22 30 -48 70 -57 89 -10
19 -28 48 -41 63 -13 16 -24 37 -24 48 0 32 -17 55 -55 78 -40 23 -43 33 -15
61 47 47 9 134 -76 171 -23 11 -53 34 -67 52 -14 19 -39 40 -55 46 -22 9 -38
30 -65 88 -20 41 -33 81 -30 89 3 8 17 14 32 14 32 0 51 16 51 45 0 12 -5 26
-12 33 -15 15 -60 16 -75 1 -8 -8 -13 1 -18 33 -11 68 -27 85 -104 108 -47 15
-81 32 -105 56 -19 19 -49 37 -66 40 -17 4 -33 11 -36 15 -3 5 -22 9 -43 9
-21 0 -55 7 -74 15 -47 20 -66 19 -102 -4z m150 -70 c59 -9 101 -29 135 -66
28 -31 78 -55 113 -55 45 0 58 -21 68 -110 5 -48 20 -109 35 -144 42 -99 42
-106 3 -106 -42 0 -126 -39 -157 -73 -13 -13 -33 -49 -46 -80 l-22 -55 -23 60
c-53 136 -201 218 -320 177 -31 -11 -43 -29 -18 -29 25 0 93 -43 140 -88 44
-42 107 -122 107 -136 0 -3 -21 5 -47 16 -133 60 -307 -3 -359 -128 -26 -62
-19 -65 65 -21 68 35 91 41 158 44 86 5 173 -9 138 -21 -147 -53 -213 -130
-230 -267 -7 -59 0 -119 15 -119 5 0 24 28 42 62 40 76 153 190 233 236 44 25
56 28 50 15 -49 -121 -64 -277 -31 -327 10 -16 21 -24 26 -20 4 5 15 47 24 94
30 156 30 156 54 75 75 -251 77 -519 6 -772 l-15 -53 -197 -2 c-108 -1 -273 0
-365 1 -160 2 -170 4 -204 27 -42 28 -99 32 -144 8 -17 -8 -33 -13 -36 -10
-13 13 11 77 43 114 49 58 67 66 109 51 29 -11 40 -10 69 3 19 9 37 26 41 37
3 12 13 21 20 21 21 0 64 42 66 65 3 40 -1 54 -26 83 -15 18 -25 42 -25 61 0
45 -26 79 -71 93 -27 8 -39 17 -39 30 0 34 -48 68 -96 68 -24 0 -44 4 -44 9 0
15 -65 33 -94 25 -14 -3 -30 -12 -37 -20 -6 -8 -29 -14 -52 -14 -50 0 -87 -31
-87 -72 0 -23 -4 -28 -24 -28 -29 0 -66 -42 -66 -74 0 -13 -13 -32 -30 -44
-25 -19 -30 -30 -30 -62 0 -31 5 -43 25 -56 15 -10 25 -26 25 -39 0 -14 12
-33 27 -45 28 -22 36 -22 115 -4 40 9 97 -47 105 -103 3 -23 3 -49 -1 -58 -5
-14 -9 -14 -37 1 -22 11 -47 15 -75 11 -34 -3 -47 0 -61 15 -46 51 -117 62
-185 27 -33 -17 -42 -18 -49 -7 -12 19 -12 21 21 69 36 54 37 75 5 135 -35 66
-32 101 14 170 29 45 40 73 45 119 5 42 15 72 35 100 28 39 33 51 45 107 4 15
15 30 28 34 12 3 42 26 67 49 52 49 148 95 196 95 55 0 97 37 123 110 13 36
28 85 33 110 8 41 39 79 63 80 20 0 46 35 46 60 0 15 -8 38 -19 51 -18 22 -18
23 5 56 12 19 28 51 35 71 15 49 23 57 72 82 60 30 137 132 137 180 l0 36 63
-4 63 -4 49 46 c43 39 54 45 80 41 17 -3 53 -9 80 -14z m509 -574 c14 -18 48
-43 75 -56 55 -24 75 -56 47 -76 -42 -31 -23 -120 32 -149 19 -10 32 -28 40
-55 7 -22 23 -53 36 -68 13 -15 32 -46 44 -68 11 -22 34 -57 51 -79 39 -49 39
-71 1 -91 -33 -17 -39 -47 -15 -79 23 -30 18 -66 -11 -89 -25 -19 -26 -24 -20
-86 7 -71 -4 -105 -26 -83 -6 6 -23 12 -37 12 -19 0 -30 9 -41 33 -20 43 -61
57 -100 35 -16 -9 -38 -14 -49 -11 -15 4 -30 -4 -50 -26 -16 -17 -36 -31 -43
-31 -34 0 -60 -53 -45 -90 5 -14 9 -39 8 -55 -3 -37 27 -68 61 -64 36 3 88
-21 88 -40 0 -30 -86 -69 -179 -80 -47 -6 -86 -9 -89 -7 -2 2 3 49 12 104 30
186 18 387 -34 592 -25 96 -65 223 -81 251 -11 22 -11 22 21 -1 118 -84 194
-182 215 -277 4 -19 13 -33 21 -33 45 0 45 172 1 263 -33 65 -76 103 -150 128
l-51 17 56 7 c89 11 188 -18 270 -78 15 -11 30 -18 33 -15 3 2 -2 29 -11 59
-21 70 -89 139 -157 158 -56 16 -125 9 -179 -18 -32 -16 -36 -16 -28 -2 32 58
196 180 242 181 9 0 28 -15 42 -33z m-1306 -760 c4 -20 -25 -34 -40 -19 -15
15 -1 44 19 40 10 -2 19 -11 21 -21z m120 -60 c4 -20 -25 -34 -40 -19 -15 15
-1 44 19 40 10 -2 19 -11 21 -21z m-274 -14 c4 -9 2 -21 -3 -26 -15 -15 -41 0
-41 23 0 25 35 28 44 3z m-56 -105 c-2 -13 -10 -23 -18 -23 -8 0 -16 10 -18
23 -3 17 2 22 18 22 16 0 21 -5 18 -22z m426 5 c4 -9 2 -21 -3 -26 -15 -15
-41 0 -41 23 0 25 35 28 44 3z m1206 -38 c0 -8 -7 -15 -15 -15 -8 0 -15 7 -15
15 0 8 7 15 15 15 8 0 15 -7 15 -15z m-92 -52 c2 -8 -5 -13 -17 -13 -12 0 -21
6 -21 16 0 18 31 15 38 -3z m-1281 -58 c2 -1 -11 -21 -29 -44 -23 -31 -33 -39
-39 -29 -10 15 -11 63 -3 95 l6 23 32 -22 c17 -12 32 -22 33 -23z m1441 -7
c-6 -18 -28 -21 -28 -4 0 9 7 16 16 16 9 0 14 -5 12 -12z m-290 -327 c0 -28 3
-55 7 -60 3 -7 -2 -11 -14 -11 -12 0 -21 3 -21 8 0 4 -28 7 -62 7 l-63 0 3 35
c1 19 8 38 15 42 7 4 8 9 2 10 -5 1 19 4 55 8 36 4 68 7 72 8 4 1 7 -20 6 -47z
m-288 21 c0 -2 -10 -22 -22 -43 -23 -41 -18 -39 -148 -59 -36 -5 -80 -14 -99
-20 -19 -5 -38 -7 -42 -4 -5 3 -9 1 -9 -4 0 -15 -42 -22 -57 -10 -10 8 -12 7
-8 -4 6 -16 -20 -32 -36 -22 -5 3 -9 1 -9 -4 0 -17 -32 -23 -49 -10 -14 12
-14 11 -2 -4 14 -18 7 -22 -36 -21 -7 1 -11 -3 -8 -7 12 -19 -310 -138 -342
-126 -7 3 -13 1 -13 -5 0 -6 -8 -9 -17 -8 -10 1 -25 -1 -33 -4 -8 -3 -35 -11
-60 -17 -25 -7 -56 -18 -69 -27 -18 -11 -22 -12 -16 -2 4 8 -2 3 -13 -11 -11
-13 -31 -25 -44 -25 -13 -1 -28 -4 -34 -7 -14 -8 -76 11 -69 22 3 5 0 12 -6
16 -8 4 -9 3 -5 -4 4 -7 2 -12 -4 -12 -6 0 -13 6 -16 13 -3 8 -24 14 -52 16
-25 1 -53 8 -61 14 -12 10 -13 9 -7 -2 6 -9 5 -12 -5 -9 -8 3 -14 12 -13 20 1
8 -5 15 -12 15 -7 0 -11 -5 -8 -11 3 -6 -11 7 -32 29 -20 22 -34 35 -30 28 4
-8 0 -8 -19 0 -14 7 -25 14 -25 17 0 4 -16 4 -35 2 -36 -4 -39 -1 -29 33 4 17
12 20 49 17 33 -3 47 1 62 16 30 34 38 46 41 67 2 11 8 23 14 26 5 3 10 10 10
15 0 5 4 8 9 7 5 -2 8 0 7 5 -1 4 6 21 15 39 9 18 17 39 17 47 0 13 61 15 472
16 259 0 474 3 477 6 7 6 421 3 421 -4z m290 -155 c97 -15 101 -35 19 -83 -31
-18 -68 -51 -84 -73 -15 -23 -42 -50 -59 -60 -53 -32 -207 -89 -291 -106 -44
-10 -97 -26 -117 -36 -21 -11 -59 -22 -85 -25 -27 -3 -94 -15 -150 -26 l-103
-22 -94 32 c-56 19 -114 32 -144 32 -38 0 -68 9 -127 39 l-77 38 64 16 c34 9
110 27 168 41 57 15 163 52 235 83 230 99 268 114 353 134 126 30 129 28 71
-61 -27 -41 -49 -78 -49 -82 0 -5 36 -8 79 -8 70 0 83 3 109 25 16 13 43 54
61 90 l32 65 57 -1 c31 0 91 -6 132 -12z"/>
<path d="M1335 1704 c-16 -8 -37 -22 -46 -30 -22 -19 -32 -18 -75 11 -23 15
-51 25 -73 25 -60 0 -65 -14 -13 -33 27 -9 66 -32 87 -50 l40 -35 43 39 c24
21 64 46 89 55 37 15 42 19 27 25 -29 12 -47 10 -79 -7z"/>
<path d="M1640 1331 c0 -5 11 -11 25 -13 28 -6 34 6 9 16 -22 8 -34 7 -34 -3z"/>
<path d="M1765 1320 c-3 -6 1 -7 9 -4 9 3 16 1 16 -5 0 -6 8 -11 18 -11 15 1
15 2 -2 15 -23 18 -33 19 -41 5z"/>
<path d="M1587 1309 c7 -7 15 -10 18 -7 3 3 -2 9 -12 12 -14 6 -15 5 -6 -5z"/>
<path d="M1875 1269 c-6 -8 -4 -10 5 -4 10 6 12 4 6 -11 -6 -15 -5 -17 5 -6 9
9 10 15 2 23 -8 8 -13 7 -18 -2z"/>
<path d="M900 709 c0 -5 5 -7 10 -4 6 3 10 8 10 11 0 2 -4 4 -10 4 -5 0 -10
-5 -10 -11z"/>
<path d="M1435 680 c-3 -5 -1 -10 4 -10 6 0 11 5 11 10 0 6 -2 10 -4 10 -3 0
-8 -4 -11 -10z"/>
</g>
</svg>
